<svg data-v-423bf9ae="" xmlns="http://www.w3.org/2000/svg" viewBox="0 0 370 90" class="iconLeft"><!----><!----><!----><g data-v-423bf9ae="" id="91125c00-6767-4559-abd9-cf9c1df5a684" fill="#000000" transform="matrix(5.940593835033989,0,0,5.940593835033989,111.00990421133778,-4.2475247974197785)"><path d="M7.10 13.15L8.71 13.15L5.02 3.82L3.51 3.82L-0.17 13.15L1.43 13.15L2.32 10.75L6.21 10.73ZM2.76 9.57L4.27 5.45L5.78 9.57ZM10.27 5.26C10.78 5.26 11.19 4.86 11.19 4.36C11.19 3.86 10.78 3.46 10.27 3.46C9.76 3.46 9.35 3.86 9.35 4.36C9.35 4.86 9.76 5.26 10.27 5.26ZM9.58 13.15L10.97 13.15L10.97 6.53L9.58 6.53ZM16.09 13.34C18.17 13.34 19.61 11.81 19.61 9.84C19.61 7.89 18.17 6.36 16.09 6.36C13.97 6.36 12.53 7.89 12.53 9.84C12.53 11.81 13.97 13.34 16.09 13.34ZM16.09 12.13C14.86 12.13 14 11.14 14 9.84C14 8.56 14.86 7.57 16.09 7.57C17.30 7.57 18.16 8.56 18.16 9.84C18.16 11.14 17.30 12.13 16.09 12.13ZM24.46 6.36C23.52 6.36 22.81 6.74 22.41 7.32L22.24 6.53L21 6.53L21 13.15L22.41 13.15L22.41 9.11C22.53 7.95 23.32 7.57 24.06 7.57C25.08 7.57 25.52 8.30 25.52 9.38L25.52 13.15L26.94 13.15L26.94 9.06C26.94 7 25.61 6.36 24.46 6.36ZM32.21 6.36C31.27 6.36 30.54 6.72 30.03 7.32L30.03 3.24L28.61 3.24L28.61 13.15L29.76 13.15L29.94 12.25C30.45 12.91 31.22 13.31 32.21 13.31C33.94 13.31 35.31 12.00 35.31 9.84C35.31 7.69 33.94 6.36 32.21 6.36ZM31.88 12.12C30.64 12.12 29.84 11.14 29.84 9.84C29.84 8.55 30.64 7.55 31.88 7.55C33.08 7.55 33.86 8.55 33.86 9.84C33.86 11.14 33.08 12.12 31.88 12.12ZM37.57 5.26C38.08 5.26 38.49 4.86 38.49 4.36C38.49 3.86 38.08 3.46 37.57 3.46C37.06 3.46 36.65 3.86 36.65 4.36C36.65 4.86 37.06 5.26 37.57 5.26ZM36.88 13.15L38.27 13.15L38.27 6.53L36.88 6.53ZM43.27 11.93C43.18 11.99 42.95 12.06 42.67 12.06C42.22 12.06 41.94 11.80 41.94 11.20L41.94 7.67L43.34 7.67L43.34 6.53L41.94 6.53L41.94 4.64L40.53 4.64L40.53 6.53L39.65 6.53L39.65 7.67L40.53 7.67L40.53 11.32C40.53 12.91 41.52 13.27 42.34 13.27C42.86 13.27 43.28 13.17 43.46 13.08Z"></path></g><defs data-v-423bf9ae=""><linearGradient data-v-423bf9ae="" gradientTransform="rotate(25)" id="2e245a95-0450-4286-84dc-b0871c4690ff" x1="0%" y1="0%" x2="100%" y2="0%"><stop data-v-423bf9ae="" offset="0%" style="stop-color: rgb(54, 22, 172); stop-opacity: 1;"></stop><stop data-v-423bf9ae="" offset="100%" style="stop-color: rgb(224, 155, 237); stop-opacity: 1;"></stop></linearGradient></defs><g data-v-423bf9ae="" id="d61cf987-b228-42b7-a136-228550dee60d" transform="matrix(2.8125,0,0,2.8125,0,0)" stroke="none" fill="url(#2e245a95-0450-4286-84dc-b0871c4690ff)"><path d="M0 16.024L15.976 32 32 15.976 16.024 0 0 16.024zm15.989 7.323l-7.336-7.336 14.694-.022-7.358 7.358z"></path></g><!----></svg>